<svg
   xmlns:dc="http://purl.org/dc/elements/1.1/"
   xmlns:cc="http://creativecommons.org/ns#"
   xmlns:rdf="http://www.w3.org/1999/02/22-rdf-syntax-ns#"
   xmlns:svg="http://www.w3.org/2000/svg"
   xmlns="http://www.w3.org/2000/svg"
   xmlns:xlink="http://www.w3.org/1999/xlink"
   xmlns:sodipodi="http://sodipodi.sourceforge.net/DTD/sodipodi-0.dtd"
   xmlns:inkscape="http://www.inkscape.org/namespaces/inkscape"
   width="570"
   height="700"
   viewBox="0 0 570 700"
   id="pawns"
   version="1.1"
   inkscape:version="0.91 r13725"
   sodipodi:docname="pawns.svg"
   enable-background="new">
  <defs
     id="defsPawnsClipPath">
    <clipPath
       clipPathUnits="userSpaceOnUse"
       id="clipPath4750">
      <circle
         style="opacity:1;fill:none;fill-opacity:0.60264905;stroke:#000000;stroke-width:1;stroke-miterlimit:4;stroke-dasharray:none;stroke-opacity:1"
         id="circle4752"
         cx="250"
         cy="802.36218"
         r="250" />
    </clipPath>
  </defs>
  <metadata
     id="metadata4171">
    <rdf:RDF>
      <cc:Work
         rdf:about="">
        <dc:format>image/svg+xml</dc:format>
        <dc:type
           rdf:resource="http://purl.org/dc/dcmitype/StillImage" />
        <dc:title />
      </cc:Work>
    </rdf:RDF>
  </metadata>
  <g
     inkscape:groupmode="layer"
     id="background"
     inkscape:label="background"
     style="display:inline"
     sodipodi:insensitive="true">
    <circle
       transform="translate(4.6484375e-7,4.6582031e-6)"
       style="display:inline;fill:#ff00ff;fill-opacity:1;fill-rule:evenodd;stroke:none"
       id="path3046"
       cx="285.10162"
       cy="349.99973"
       r="210" />
  </g>
  <g
     inkscape:label="roundImage"
     inkscape:groupmode="layer"
     id="roundImage"
     transform="translate(35.101634,-452.36219)"
     style="display:inline"
     sodipodi:insensitive="true">
    <image
       sodipodi:absref="/home/pi/DragonberryPi/app/public/images/blank.png"
       y="552.36218"
       x="41"
       id="imageRoundImage"
       xlink:href="/images/blank.png"
       preserveAspectRatio="none"
       height="500"
       width="429"
       clip-path="url(#clipPath4750)"
       style="fill:none;stroke:none" />
  </g>
  <g
     inkscape:groupmode="layer"
     id="ringColor"
     inkscape:label="ringColor"
     style="display:inline"
     transform="translate(35.101634,99.999975)"
     sodipodi:insensitive="true">
    <path
       style="fill:#00ffff;fill-opacity:1;stroke:none"
       d="m 427.38026,72.973311 a 250,250 0 0 0 -353.553388,0 250,250 0 0 0 0,353.553389 250,250 0 0 0 353.553388,0 250,250 0 0 0 0,-353.553389 z m -28.99138,28.284269 a 210,210 0 0 1 0,296.98485 210,210 0 0 1 -296.98484,0 210,210 0 0 1 0,-296.98485 210,210 0 0 1 296.98484,0 z"
       id="pathRingColor"
       inkscape:connector-curvature="0" />
  </g>
  <g
     inkscape:groupmode="layer"
     id="ringSketchOutline"
     inkscape:label="ringSketchOutline"
     sodipodi:insensitive="true"
     style="display:inline">
    <path
       style="display:inline;fill:none;stroke:#000000;stroke-opacity:1"
       d="m 460.85671,176.31144 c -18.29502,-19.39085 -41.68105,-34.08318 -66.96119,-45.23615 m 16.08316,-1.29437 c -21.32442,-12.20651 -43.06086,-20.60457 -65.26564,-25.53004 m 8.4495,9.68591 c -24.95049,-7.55082 -49.03111,-11.63624 -73.25393,-12.84495 m 22.26848,3.18651 c -30.28379,-0.78846 -62.84192,3.00226 -91.98414,14.0464 m 17.99188,-16.0674 c -28.51917,5.2996 -52.82147,15.8717 -73.51373,29.70995 m 18.2961,-4.04716 c -23.64464,12.21621 -43.06958,25.24918 -58.97766,39.87557 m 5.79451,-7.8527 c -5.4991,4.48309 -10.65161,9.1634 -15.46998,14.02802 -12.484104,12.60395 -22.685868,26.40543 -30.855573,41.14822 M 87.793862,197.3782 c -13.473189,18.63146 -25.605915,40.3214 -35.402364,64.16991 m 4.542789,-12.53524 c -11.599134,28.7825 -19.815145,57.37194 -22.174313,85.79455 m 5.684267,-26.50837 c -5.098393,31.46068 -2.571879,62.0889 6.000821,93.81726 m -8.975204,-23.45846 c 4.535954,27.67841 11.343128,53.79967 22.843505,78.13379 M 47.388976,433.14407 c 12.143712,28.90835 26.599435,53.44162 46.076223,74.2443 M 77.130151,496.18754 c 8.260778,10.83927 17.152466,21.4467 26.846529,31.80628 10.74129,11.47869 22.41199,22.59345 35.2211,33.33812 m -12.83374,-19.99332 c 17.94632,16.89834 38.70617,30.61358 60.12275,42.71478 m -12.37904,-12.87917 c 23.76428,11.10242 48.1656,19.49063 72.63063,23.55215 m -17.72421,-0.70563 c 29.3797,7.6456 61.79453,9.01983 94.4653,6.23925 m -25.61422,0.86371 c 33.11494,-0.71587 64.53495,-11.1261 94.13004,-28.90807 m -28.00928,11.53808 c 31.25888,-9.48493 60.48587,-24.76298 86.54563,-42.69 m -25.19043,10.90755 c 13.2309,-8.75518 25.9416,-19.07833 38.03378,-30.73511 8.79307,-8.47646 17.2327,-17.63245 25.2944,-27.37174 m -24.7005,24.85142 c 21.08583,-23.1774 37.68249,-49.10598 51.61207,-78.25354 m -9.14749,22.82436 c 14.58026,-28.60119 22.65342,-59.97817 24.86384,-93.48362 m -0.32668,27.62363 c 5.3789,-33.79425 7.07059,-64.54295 2.40258,-95.20517 m 0.97077,30.01384 c -2.52943,-32.13666 -11.14725,-65.08498 -25.19921,-98.80035 m 4.62367,32.29691 c -12.13736,-31.55281 -28.31687,-59.85434 -49.37713,-84.36432 m 20.11386,13.55043 c -7.14596,-9.70183 -15.40137,-18.87758 -24.52956,-27.19598 -12.35453,-11.25853 -26.26423,-20.90647 -41.10428,-28.15454 m 37.02511,28.24304 c -17.90524,-16.21976 -37.82289,-29.4108 -59.81929,-39.21148 m 16.5362,9.99234 c -24.88665,-15.48986 -52.54073,-25.09788 -80.68767,-30.3412 m 19.53818,5.69062 c -25.0801,-6.08898 -50.00713,-9.44008 -75.56664,-9.17663 m 16.03414,1.60807 c -28.12018,-0.37364 -55.21105,1.49355 -80.34062,6.60798 m 14.66894,-12.22138 c -33.08169,6.10266 -62.41122,21.82723 -88.21909,43.17771 m 25.12077,-7.65853 c -21.47533,12.55048 -40.17473,26.75553 -55.97583,43.82786 -2.1776,2.35279 -4.29833,4.75813 -6.36201,7.2189 m 23.85957,-22.8556 c -2.47728,2.34456 -4.91557,4.7375 -7.31221,7.17832 -17.01311,17.32679 -31.817845,36.95654 -43.539056,58.61192 m 7.231128,-14.76072 c -16.108058,25.64457 -29.762767,55.23854 -38.887848,87.4122 m 7.212881,-32.08268 c -10.139966,29.57138 -13.508543,61.69749 -11.250917,93.82209 m 4.503971,-32.14203 c 0.06241,29.82494 2.934059,60.60622 11.450641,91.72314 M 37.972247,412.62977 c 6.351085,30.67736 19.764042,58.90834 38.703912,84.56782 M 62.604857,459.46418 c 10.12886,20.0128 24.718621,39.99288 41.795923,57.65913 m -7.076447,-0.348 c 4.266027,4.69177 8.537307,9.22147 12.826417,13.57617 18.22813,18.50693 36.59946,33.66356 55.76396,44.45474 m -12.2626,-9.40364 c 27.91801,18.21594 57.34451,30.25483 89.83949,36.96036 m -36.26819,-23.303 c 23.2797,7.70024 48.3368,12.54213 74.44731,14.83904 m -15.42806,13.57857 c 28.40241,2.95851 60.83161,-1.20195 93.03468,-11.07417 m -28.51245,0.0404 c 30.28153,-6.91311 62.03536,-15.9057 91.90757,-29.83829 m -20.93376,15.37161 c 22.39434,-11.01761 43.4828,-25.31894 62.02895,-42.53324 m -14.70505,6.79522 c 6.22994,-5.04934 12.32889,-10.59665 18.20267,-16.55753 11.79732,-11.97227 22.64182,-25.56762 31.80389,-40.07776 m -13.7635,13.42583 c 13.57449,-19.47421 25.9404,-40.4063 35.10944,-62.67586 m -8.24171,19.66949 c 12.10587,-26.04153 20.57325,-56.5284 24.81169,-87.95386 m -5.13422,22.23945 c 5.49888,-32.54252 4.74794,-65.39218 -1.92245,-96.65192 m -0.89449,25.08347 c -2.55675,-30.92805 -10.67723,-59.79756 -21.73557,-86.76246 m 10.52587,21.55108 c -12.31825,-31.26229 -33.6476,-59.61001 -62.89358,-84.08258 m 28.05444,25.29538 c -6.02863,-8.70572 -13.0483,-17.00081 -20.86323,-24.91743 -15.14366,-15.34073 -33.18483,-29.17404 -52.68891,-41.84403 m 46.72002,29.24202 c -23.39598,-22.42433 -49.89254,-38.138 -79.70029,-49.20183 m 31.82239,15.27947 C 383.5116,114.77282 356.4793,104.33761 328.97585,97.728852 m 12.34765,1.943188 c -28.65764,-7.701418 -56.08861,-6.834737 -83.44962,-0.04663 m 13.43732,5.931482 c -26.10715,0.91264 -51.23636,5.65086 -74.2547,14.60647 m 21.04205,-13.63635 c -31.44908,8.20223 -61.92704,22.5065 -89.57054,41.33637 m 29.0871,-10.38475 c -18.49566,10.9794 -34.38018,24.10161 -48.21346,39.53748 -4.34437,4.84767 -8.48084,9.91728 -12.428531,15.21257 m 9.443441,-19.75171 c -0.0769,0.0693 -0.15379,0.1386 -0.23057,0.20803 -19.886731,17.98459 -34.190429,41.72309 -43.544864,67.78307 m 15.618511,-22.78928 c -13.501381,22.13605 -25.254692,48.0442 -34.862052,76.0303 m -4.216613,-17.83621 c -7.78643,28.86939 -10.401283,57.80012 -5.160206,86.03246 m 3.888366,-26.80919 c -2.356985,28.71465 1.587266,60.28965 8.683432,91.95092 m -7.462466,-20.52266 c 7.759377,31.01937 19.78878,59.33629 37.486165,83.38875 M 65.619805,468.89298 c 11.123888,20.46617 26.477726,40.70658 44.950015,58.49838 0.8513,0.81993 1.70901,1.63447 2.57304,2.44341 M 97.479807,509.78866 c 3.006353,3.48812 6.147763,6.8972 9.412593,10.22183 13.67894,13.92943 29.466,26.31751 46.47886,36.82339 m -10.60643,1.04848 c 23.67446,18.25133 53.53977,31.21319 84.81638,39.85936 m -27.35072,-12.91911 c 22.58253,8.38006 47.89193,13.99561 74.84358,16.89049 m -11.85889,2.12489 c 25.30211,2.08342 50.75689,1.84264 75.12833,-2.48561 m -16.33366,-2.86079 c 24.59767,-3.79035 46.55981,-9.25469 66.45558,-17.76792 m -21.02659,11.38681 c 25.80251,-7.83143 49.58408,-21.86403 71.99501,-39.60416 m -19.45048,3.70535 c 14.39524,-9.12205 27.46761,-19.78372 39.26761,-31.69105 6.19594,-6.25229 12.02925,-12.83601 17.51202,-19.70519 m -6.85062,16.87752 c 21.18816,-23.51088 37.98391,-52.4105 46.30966,-84.13591 m -5.32342,19.6172 c 11.52614,-25.57044 22.0938,-52.28442 28.72613,-80.59875 m -3.22379,30.89084 c 5.4259,-24.53477 7.66225,-49.2254 6.66909,-74.46677 m -9.16497,16.38115 c -0.74308,-26.03272 -6.15294,-54.15439 -17.24305,-80.63214 m 15.21646,15.95676 c -6.61079,-30.69876 -22.46653,-56.30387 -44.47868,-78.43845 m 15.5394,18.66002 c -12.02023,-20.09093 -25.15401,-38.66393 -40.33583,-56.08049 -5.88059,-6.74621 -12.04843,-13.29567 -18.5519,-19.67245 m 14.25896,20.10414 c -16.14339,-16.14546 -35.93958,-30.59203 -57.61113,-42.06664 m 8.44629,12.75008 c -20.01351,-12.0504 -40.73392,-21.74398 -61.29851,-28.13565 m 15.89444,-1.68383 c -24.0849,-7.13347 -46.69678,-12.096603 -68.85992,-13.545239 m 21.06945,3.206319 c -27.18735,-2.775006 -55.37497,-2.012776 -84.04915,2.28794 m 10.25119,-2.173589 c -32.77145,3.178869 -62.50116,17.768279 -86.82813,38.522779 m 26.97765,-16.67252 c -23.55023,9.78602 -44.14946,24.61915 -62.07561,43.19275 m 18.73272,-15.76888 c -8.14853,6.23953 -16.36879,13.48656 -24.43377,21.5561 -9.18396,9.18917 -18.141707,19.41992 -26.552063,30.41236 m 4.744535,-8.07298 c -16.446694,19.37454 -28.960067,38.61143 -38.740674,58.40447 m 9.393337,-11.66928 c -12.250683,23.83766 -21.066724,49.80949 -26.272896,76.57193 m 0.05615,-24.63345 c -5.049543,23.95569 -6.112844,48.88956 -2.209948,73.1212 m -4.503971,-21.34073 c -0.385448,24.54325 4.205564,48.66206 12.754457,72.62149 m -3.303622,-13.33926 c 5.616213,23.47355 16.079582,47.07791 30.85649,68.76013 m -8.687824,-6.78611 c 9.778198,22.07716 24.957451,42.10702 43.158592,59.73562 M 93.004261,506.9587 c 4.955489,6.13179 10.052349,11.95215 15.283739,17.48104 15.10996,15.96926 31.2344,29.39365 48.14436,40.83468 m -10.56715,-8.91281 c 19.18275,13.28274 40.70786,23.6008 63.78181,30.06068 m -26.87213,-2.25578 c 26.94891,10.90344 57.05681,17.081 89.00549,17.58936 m -26.48721,-10.69252 c 24.44402,4.61153 51.0937,4.72899 77.12064,2.4452 m -15.98262,7.91148 c 28.97017,-1.9223 60.35406,-11.81185 89.95513,-26.41522 m -12.60371,2.31292 c 23.33402,-9.91282 44.05162,-21.04619 62.17484,-34.87996 m -16.31171,15.49259 c 13.50029,-8.41725 25.86137,-18.7859 37.14214,-30.62285 11.52365,-12.09181 21.87391,-25.66646 31.15812,-40.19202 m -15.5774,19.62496 c 17.56386,-20.50015 31.80498,-41.41365 43.04396,-62.34924 m -15.57783,19.23683 c 13.47447,-28.57027 23.4587,-61.94854 26.06163,-95.43693 m -11.81718,28.19587 c 3.72058,-24.5772 5.09542,-49.43677 2.91845,-74.46388 m 7.80039,24.46134 c -0.4762,-31.77024 -9.37919,-67.23207 -22.91927,-100.37232 m 14.3764,19.82549 c -7.87924,-27.14527 -20.7651,-49.97082 -36.25512,-69.80737 m 11.99239,14.27701 c -8.71029,-14.42554 -19.80033,-28.13039 -32.34746,-40.55699 -8.16865,-8.09018 -16.93235,-15.61653 -26.02885,-22.43768 m 18.09022,24.17664 c -21.52608,-21.24195 -47.6298,-39.06686 -77.55134,-54.47405 m 26.17427,15.5999 c -20.69872,-10.43093 -43.02491,-20.63342 -66.85071,-29.13384 m 14.34678,7.09745 c -30.82335,-7.90506 -62.47706,-10.784594 -95.07468,-6.14102 m 30.91123,0.84258 c -27.99051,-1.68949 -54.17155,2.98153 -79.2305,11.23623 m 16.60688,-10.42078 c -31.00066,6.66035 -60.25332,20.47975 -85.02752,38.58479 m 16.67924,-11.54487 c -19.3776,11.86222 -37.30087,25.72678 -51.73242,42.00539 -5.63154,6.35231 -10.71684,13.05666 -15.136904,20.12877 m 14.513904,-28.03569 c -0.23374,0.23226 -0.46712,0.46507 -0.70016,0.69842 -16.320982,16.34289 -30.850598,35.26363 -43.079702,56.16119 m 15.349636,-7.7173 c -18.149562,26.81796 -30.437382,55.70948 -39.769689,86.24863 m 12.827892,-22.59573 c -9.962632,27.81206 -14.145493,59.11502 -15.046478,89.61806 M 39.01391,343.55301 c -0.684001,23.92618 1.131996,48.43156 5.585149,72.31624 m -3.2198,-18.9019 c 4.487274,25.68996 14.905365,51.20086 29.872591,75.45231 M 57.621242,451.01718 c 11.786787,25.18581 28.107961,50.04251 48.028478,72.37426 M 92.117994,506.6248 c 5.101403,6.43024 10.679366,12.58158 16.691076,18.44032 14.25947,13.89662 30.89909,26.08926 49.31524,36.4559 m -23.20764,-11.81891 c 19.58401,14.05703 43.31215,27.56808 68.34295,37.97513 m -13.25211,-5.43852 c 27.76939,12.58171 59.199,19.67723 90.25779,22.3813 m -33.58614,-6.31063 c 30.80239,4.94131 64.76702,0.3686 96.70238,-11.32693 m -22.42445,8.71662 c 33.95913,-4.94088 61.96238,-17.41115 86.37544,-37.23031 m -16.36847,20.05558 c 23.85029,-9.89206 45.49084,-23.76021 64.56495,-39.7536 m -16.25894,5.486 c 7.80441,-6.22252 15.35281,-13.06216 22.48023,-20.43159 14.5619,-15.05636 27.28497,-32.24084 36.82508,-50.73136 m -16.21626,28.58693 c 17.60895,-23.25168 33.81308,-54.85603 46.12793,-89.73742 m -3.88546,30.17335 c 11.54604,-27.10647 14.98415,-57.03459 11.50856,-86.00968 m 3.49221,23.85558 c 2.19676,-27.58228 -0.0588,-58.11344 -8.75827,-88.34285 m 4.10057,29.19286 c -4.46541,-24.70216 -11.87777,-51.43627 -23.31194,-78.39391 m 9.366,11.15121 c -10.94971,-24.55298 -23.53686,-46.17841 -39.18686,-63.54273 m 8.48693,15.37693 c -7.69823,-10.99028 -16.17806,-21.44888 -25.28919,-31.33011 -11.40262,-12.3664 -23.72701,-23.75626 -36.65501,-34.12227 m 15.63387,60.25208 c 16.13205,18.96394 30.6041,41.42183 40.54959,66.75442 m -11.07249,-8.04717 c 11.70149,22.46179 20.29109,48.18993 25.02346,73.73626 m -9.12067,-15.74455 c 3.85441,23.86501 4.07648,48.774 -0.27101,72.82661 m 4.70326,-15.73132 c -2.64489,25.76835 -9.04201,49.94103 -19.10033,70.12111 m -2.4735,-24.40067 c -8.42633,21.91232 -20.59992,43.3914 -35.35822,63.38471 m 18.98785,-7.69019 c -5.54811,8.03903 -11.64754,15.67128 -18.18751,22.93542 -11.30353,12.55517 -23.84164,23.92199 -37.02743,34.37866 m 7.10949,-17.14775 c -19.65019,14.53283 -41.21061,25.98376 -63.54214,33.77302 m 6.81177,-7.04625 c -27.33417,10.41092 -58.53781,16.12341 -88.66918,15.7384 m 29.60635,8.13946 c -29.40059,2.44126 -61.36891,-3.80231 -91.48716,-15.96403 m 30.09278,-6.02337 c -22.82314,-7.0201 -45.71177,-15.80451 -66.08712,-26.78852 m 20.66936,19.16623 c -14.37383,-8.88838 -28.42526,-19.70032 -41.59448,-32.25898 -7.65798,-7.30293 -14.98836,-15.16857 -21.89106,-23.55154 m 0.82614,10.34344 C 104.49173,469.22085 91.177808,446.38822 85.392496,421.80061 m 14.24141,18.39923 C 87.766242,413.61157 81.260572,384.48631 81.983913,354.85235 m 1.890433,18.37252 c -4.0235,-25.8899 -3.873799,-51.13343 -0.841248,-74.6441 m -7.414341,21.82086 c 4.343194,-24.80854 12.77369,-49.10018 25.646803,-71.28144 m 1.34614,14.87105 c 9.30668,-22.69158 23.04444,-43.46864 38.78882,-61.86102 4.76585,-5.5674 9.69734,-10.8957 14.724,-15.97984 m -28.48288,22.70318 c 1.18862,-1.23701 2.40439,-2.4689 3.6465,-3.6947 15.19794,-14.99831 34.2162,-28.96476 55.51036,-40.24486 m -9.20943,1.84378 c 24.77211,-13.96122 54.57879,-23.42724 86.05664,-24.47951 m -28.77517,1.41629 c 32.81095,-6.76941 65.27604,-7.33995 95.258,1.22717 0,0 0.009,0.003 0.009,0.003 m -33.32459,-4.67732 c 27.88261,1.73229 56.32813,10.04389 84.11026,22.26549 m -21.20353,-6.86207 c 25.3452,10.66337 48.89193,23.88333 70.07258,39.13312 1.15519,0.83172 2.3022,1.66866 3.44099,2.5107 m -21.43292,-13.23694 c 4.75668,3.83635 9.34938,7.90285 13.78987,12.19167 16.25615,15.70091 30.33865,34.24818 42.97717,55.20296 M 445.3905,210.5841 c 19.92365,19.7572 32.05202,42.87264 38.02857,66.93485 m -8.70763,-22.6396 c 15.43658,29.41877 20.67786,63.93278 18.38201,100.1149 m -4.48581,-25.40132 c 3.45268,29.89485 -0.34916,63.78761 -12.01722,95.81794 m 7.9956,-37.89134 c -5.05521,28.92108 -16.36677,55.89613 -31.13935,78.94088 m 18.83996,-10.71296 c -8.54425,15.8907 -20.95923,31.20488 -36.04256,44.59058 -10.86022,9.63789 -23.05407,18.23234 -36.10118,25.31428 m 31.44514,-18.53305 c -19.66236,17.14119 -40.85191,30.66147 -64.26158,40.82369 m 9.0582,-6.65465 c -27.28099,12.5696 -54.95031,17.96719 -82.12936,14.66657 m 26.44292,6.58583 c -31.77511,3.9944 -62.27212,0.83501 -92.81383,-10.15591 m 15.50437,2.93851 c -25.41671,-4.64576 -51.09267,-14.13259 -73.09394,-27.78566 m 12.24604,14.48034 c -19.43803,-9.08557 -36.76581,-23.61241 -50.60312,-41.75507 -4.74908,-6.22671 -9.0777,-12.86697 -12.93515,-19.84184 m 17.80337,16.74991 c -0.2813,-0.26628 -0.56158,-0.53357 -0.84085,-0.80186 C 113.91487,475.18501 98.444801,447.97241 91.344058,419.7349 m 11.319102,21.51769 C 91.260194,417.71178 82.318227,388.81205 78.651712,358.86738 m -3.8844,21.43551 c -4.934742,-30.12717 -2.609925,-58.5285 7.192528,-84.70592 m -1.766532,22.23971 c 4.637287,-25.83451 12.614028,-52.07172 25.029252,-75.4047 m -3.85338,15.56102 c 9.87831,-22.05724 23.81345,-40.7851 40.99262,-55.9918 m -21.2798,15.46969 c 3.56938,-4.63446 7.48325,-9.04569 11.70565,-13.23066 16.83006,-16.68088 38.43969,-29.65223 62.46633,-38.92397 m -27.94653,4.88452 c 24.80345,-16.85143 56.27407,-27.83037 89.23225,-33.51059 m -22.22113,6.10259 c 28.36415,-7.43718 55.49317,-7.47234 81.73653,-1.37205 m -13.293,-6.02692 c 26.83633,2.18421 53.31475,9.54418 77.00335,23.0256 m -19.02908,-10.35932 c 23.57443,8.19642 46.96144,21.53774 67.99335,38.24151 m -13.04057,-11.58201 c 8.87759,6.71381 17.13618,13.83429 24.76939,21.41715 14.79656,14.69896 27.11148,31.00546 36.99219,49.199 m -39.3785,-35.96122 c 20.45849,24.74578 38.85411,50.06324 52.54661,78.35413 m -9.59097,-23.50882 c 13.761,27.76461 17.7045,59.99034 13.63587,90.56606 m -0.58992,-22.99224 c 1.46221,34.87911 -0.82187,66.70568 -11.46994,97.6165 m 7.90636,-38.48988 c -7.61679,28.53988 -19.02281,55.25934 -35.20904,79.52621 m 11.63468,-9.48645 c -8.42026,13.64793 -18.89033,27.4654 -30.94286,40.55952 -11.23093,12.20151 -23.7481,23.6795 -37.12302,33.75902 m 22.44409,-23.15715 c -23.13234,18.42244 -49.8661,33.18064 -79.70359,42.12797 m 19.98046,-12.36531 c -23.25928,8.94237 -46.43265,14.59974 -69.53761,16.27356 m 22.95409,-5.65718 c -33.62164,5.45723 -68.77892,-0.18233 -104.45096,-11.86009 m 26.77882,15.47493 c -26.12527,-6.59465 -52.45399,-18.63369 -74.45874,-36.66156 m 17.77802,10.2987 c -16.17945,-10.0163 -31.10647,-21.25162 -44.0762,-34.06722 -3.4588,-3.41769 -6.77182,-6.94145 -9.92614,-10.57631 m 6.91221,15.38695 c -0.0874,-0.0892 -0.17479,-0.17852 -0.26209,-0.26784 -21.30729,-21.80129 -38.340131,-45.69787 -50.096032,-71.36308 m 11.907827,18.12979 C 78.441854,418.27442 72.204669,385.79973 72.525498,354.55877 m 9.363286,33.00145 c -4.615523,-24.84982 -3.22891,-51.59562 2.333161,-78.76959 m -4.402513,11.25778 c 3.579819,-31.95812 16.848449,-62.93223 36.133938,-87.6524 m -13.79736,23.97413 c 9.24209,-19.58572 22.0123,-37.58579 36.71264,-52.85159 5.15267,-5.35087 10.52602,-10.34883 16.04543,-14.94984 m -14.02589,9.87194 c 0.21862,-0.22594 0.43787,-0.45129 0.65773,-0.67605 20.09154,-20.53898 45.15402,-35.97037 70.57932,-43.49964 m -20.86122,9.88616 c 27.3976,-14.89124 56.58989,-23.09521 86.76659,-26.64405 m -28.27722,9.66858 c 22.24517,-2.85467 46.75158,-3.33632 70.85137,0.0186 m -17.26784,-8.49112 c 27.99129,3.97177 58.89804,12.95371 87.8221,28.45268 m -25.92909,-4.35484 c 23.64913,9.84902 46.88359,24.30679 68.1609,41.47961 1.36887,1.10481 2.72864,2.22002 4.07895,3.34509 M 425.78303,186.6493 c 4.08598,3.45467 7.93349,7.06164 11.542,10.81536 14.49982,15.08333 25.06963,32.46287 31.76707,51.68328 m -30.63746,-45.91063 c 16.80271,18.12673 31.05206,38.4668 42.24663,61.62426 m -14.20649,-25.05195 c 14.60095,24.53383 22.30988,53.38459 24.4913,84.07506 m 0.91447,-18.05912 c 6.55207,24.81297 6.49339,51.4458 2.13824,76.82396 m -3.5133,-15.68696 c -1.7241,25.64268 -8.1602,51.08013 -18.29489,75.60119 m 2.64371,-21.77709 c -9.09829,27.76592 -26.05137,52.72782 -46.38665,73.23388 -1.9076,1.92362 -3.84276,3.8059 -5.80153,5.6458 M 442.354,483.70773 c -4.31815,4.83935 -8.83247,9.60757 -13.5414,14.25741 -12.35587,12.20083 -25.96542,23.50038 -40.72696,33.07282 m 26.08354,-8.28375 c -22.09129,16.61322 -49.09054,28.21028 -78.88242,35.96083 m 20.92114,-16.44886 c -22.88893,8.01804 -48.59697,11.84281 -75.87923,12.06133 m 14.53185,0.73899 c -25.07793,0.008 -49.69542,-2.92239 -72.88887,-10.61391 m 10.41431,12.72152 c -30.92963,-8.81515 -61.69073,-20.98378 -87.93238,-39.44498 m 33.96057,12.34933 c -14.21331,-9.04057 -27.33979,-19.3383 -39.59402,-31.11066 -7.21076,-6.92721 -14.09546,-14.34187 -20.70685,-22.281 m 4.09829,13.74144 C 101.04455,466.65587 85.853445,439.84849 75.631254,408.84377 m 20.687157,29.10636 C 85.064399,414.50512 78.65527,388.22846 77.005409,363.12349 m -8.119899,12.90117 c -3.46094,-29.00234 -0.680926,-56.93956 8.582312,-83.44408 m 2.077655,21.55724 C 85.19788,287.20486 95.322449,260.6269 110.95628,237.1695 m -11.67679,19.8566 c 9.29334,-19.13584 22.51611,-37.63155 38.32154,-54.42834 6.76367,-7.18791 13.97419,-14.03745 21.51813,-20.47773 m -22.96889,17.27735 c 17.36013,-17.13577 39.0441,-29.5388 63.65395,-36.24425 m -16.97159,1.5901 c 22.52928,-11.22023 46.87105,-20.59509 71.62523,-25.52849 m -22.71694,4.81707 c 25.51988,-5.7956 53.73145,-8.18212 82.38187,-7.1083 m -15.89698,-5.77858 c 25.59937,0.58001 52.26591,8.83751 75.91963,21.86225 m -16.54243,-5.46194 c 22.71871,7.83393 44.51953,21.25964 62.75845,37.84462 m -5.1576,-4.51546 c 8.45885,5.70945 16.30842,12.31519 23.5304,19.63255 14.74878,14.94356 26.77281,32.7432 36.06381,51.75526 M 435.56294,205.001 c 17.27437,17.62803 30.62568,39.08514 38.78493,62.496 m -2.71319,-15.36875 c 13.81221,28.8325 22.49829,58.84425 22.93941,91.35747 m -6.1961,-29.81633 c 3.71773,25.75653 3.42788,50.96493 -2.23505,74.55395 m 12.41544,-9.12149 c -4.53994,34.37614 -16.52525,63.99404 -37.53074,89.69953 m 10.74496,-32.14836 c -11.41957,20.93093 -24.62638,41.69548 -40.86095,60.40928 0,0 -0.0185,0.0213 -0.0185,0.0213 m 11.32711,-7.08737 c -3.42497,4.01225 -6.92577,7.87109 -10.49991,11.57719 -18.69826,19.38864 -39.17178,34.35544 -60.82277,45.23104 m 21.83946,-14.34332 c -19.82771,11.26434 -44.26795,20.6664 -70.61764,26.11812 m 16.81549,-7.32021 c -25.27569,5.58777 -52.99785,7.75002 -81.20408,3.95552 m 21.73602,0.13396 c -27.54382,0.14242 -54.15012,-5.72935 -80.86672,-15.84411 m 24.29316,11.26839 c -27.89195,-8.17127 -52.4387,-22.07372 -74.87303,-40.09706 m 17.87019,5.43819 c -9.51707,-7.14591 -18.86312,-15.11637 -27.69025,-23.86367 -9.35241,-9.26782 -18.07543,-19.36165 -25.76892,-30.1947 m 11.68484,23.05977 c -15.37907,-20.5847 -27.380005,-41.9084 -34.861635,-64.96679 m 2.595019,5.64493 C 79.300442,395.8081 73.086129,367.27346 73.471574,340.00008 m 5.145683,26.3234 c -1.038164,-27.6869 -0.275937,-57.07168 4.998917,-85.21754 m -3.701832,22.21943 c 5.573628,-23.48461 14.412311,-45.61919 26.731938,-65.64604 m -5.57839,14.30642 c 10.27861,-18.46739 22.72985,-36.62971 37.54018,-53.92875 3.817,-4.45841 7.78143,-8.84862 11.8947,-13.16238 m -13.57428,22.01605 c 0.5617,-0.57258 1.12811,-1.14421 1.69915,-1.71479 18.52271,-18.50782 41.65934,-35.66132 66.82583,-49.05838 m -22.33824,5.05128 c 26.61378,-14.04701 53.37858,-20.98186 80.7077,-20.39927 m -19.10534,2.95459 c 31.5875,-4.72814 60.56343,-5.70365 88.70771,-0.17264 m -18.70591,-7.79989 c 24.93779,3.69306 49.9007,12.4197 73.42587,26.80513 m -23.16671,-7.2783 c 24.61573,10.89167 47.36133,25.87394 66.75059,44.85855 3.84736,3.76707 7.55363,7.68311 11.1086,11.74518 m 42.8939,226.76378 -83.76021,96.87222 M 216.56347,141.1434 344.59762,138.44949 M 65.599289,357.76028 98.45506,233.98428 M 92.674304,176.14388 30.589579,301.62491 M 544.02186,323.8174 492.996,193.44731"
       id="pathRingSketchOutline"
       inkscape:connector-curvature="0"
       inkscape:path-effect="#path-effect3858"
       inkscape:original-d="m 462.48189,172.97328 a 250,250 0 0 0 -353.55339,0 250,250 0 0 0 0,353.55339 250,250 0 0 0 353.55339,0 250,250 0 0 0 0,-353.55339 z m -28.99138,28.28427 a 210,210 0 0 1 0,296.98485 210,210 0 0 1 -296.98484,0 210,210 0 0 1 0,-296.98485 210,210 0 0 1 296.98484,0 z" />
  </g>
  <g
     inkscape:groupmode="layer"
     id="ringShading"
     inkscape:label="ringShading"
     style="display:inline"
     transform="translate(35.101634,99.999975)"
     sodipodi:insensitive="true">
    <path
       inkscape:connector-curvature="0"
       style="fill:url(#radialGradient7227);fill-opacity:1;stroke:none"
       d="m 426.67318,72.973282 a 250,250 0 0 0 -353.553386,0 250,250 0 0 0 -5.7e-5,353.553448 250,250 0 0 0 353.553443,-6e-5 250,250 0 0 0 0,-353.553388 z m -28.99137,28.284268 a 210,210 0 0 1 0,296.98485 210,210 0 0 1 -296.98491,6e-5 210,210 0 0 1 6e-5,-296.98491 210,210 0 0 1 296.98485,0 z"
       id="pathRingShading" />
  </g>
  <g
     inkscape:groupmode="layer"
     id="modifiers"
     inkscape:label="modifiers"
  </g>
  <g
     inkscape:groupmode="layer"
     id="heightIndicator"
     inkscape:label="heightIndicator"
     style="display:inline"
     sodipodi:insensitive="true">
    <g
       id="height"
       transform="matrix(1.44,0,0,1.44,-236.90908,-280.32315)"
       style="opacity:1">
      <title
         id="title4706">height</title>
      <text
         inkscape:transform-center-y="-96.226167"
         inkscape:transform-center-x="15.193596"
         sodipodi:linespacing="125%"
         id="textHeight"
         y="676.94495"
         x="331.96698"
         style="font-style:normal;font-variant:normal;font-weight:bold;font-stretch:normal;font-size:121.52777863px;line-height:125%;font-family:sans-serif;-inkscape-font-specification:'sans-serif, Bold';text-align:start;letter-spacing:0px;word-spacing:0px;writing-mode:lr-tb;text-anchor:start;fill:#000000;fill-opacity:1;stroke:#ffff00;stroke-width:3.47222233;stroke-linecap:butt;stroke-linejoin:miter;stroke-miterlimit:4;stroke-dasharray:none;stroke-opacity:1"
         xml:space="preserve"><tspan
           y="676.94495"
           x="331.96698"
           id="tspanHeight"
           sodipodi:role="line"></tspan></text>
    </g>
  </g>
</svg>
