<?xml version="1.0" encoding="UTF-8" standalone="no"?>
<!-- Created with Inkscape (http://www.inkscape.org/) -->

<svg
   xmlns:dc="http://purl.org/dc/elements/1.1/"
   xmlns:cc="http://creativecommons.org/ns#"
   xmlns:rdf="http://www.w3.org/1999/02/22-rdf-syntax-ns#"
   xmlns:svg="http://www.w3.org/2000/svg"
   xmlns="http://www.w3.org/2000/svg"
   xmlns:sodipodi="http://sodipodi.sourceforge.net/DTD/sodipodi-0.dtd"
   xmlns:inkscape="http://www.inkscape.org/namespaces/inkscape"
   width="500"
   height="500"
   viewBox="0 0 500.00001 500.00001"
   id="svg4146"
   version="1.1"
   inkscape:version="0.91 r13725"
   sodipodi:docname="target-pointer.svg">
  <defs
     id="defs4148" />
  <sodipodi:namedview
     id="base"
     pagecolor="#ffffff"
     bordercolor="#666666"
     borderopacity="1.0"
     inkscape:pageopacity="0.0"
     inkscape:pageshadow="2"
     inkscape:zoom="0.98994949"
     inkscape:cx="155"
     inkscape:cy="254.28571"
     inkscape:document-units="px"
     inkscape:current-layer="layer1"
     showgrid="true"
     units="px"
     inkscape:window-width="1365"
     inkscape:window-height="714"
     inkscape:window-x="-8"
     inkscape:window-y="712"
     inkscape:window-maximized="1">
    <inkscape:grid
       type="xygrid"
       id="grid4694" />
  </sodipodi:namedview>
  <metadata
     id="metadata4151">
    <rdf:RDF>
      <cc:Work
         rdf:about="">
        <dc:format>image/svg+xml</dc:format>
        <dc:type
           rdf:resource="http://purl.org/dc/dcmitype/StillImage" />
        <dc:title></dc:title>
      </cc:Work>
    </rdf:RDF>
  </metadata>
  <g
     inkscape:label="Layer 1"
     inkscape:groupmode="layer"
     id="layer1"
     transform="translate(0,-552.36216)">
    <g
       id="target"
       transform="translate(250,-250)">
      <path
         id="outer-ring"
         transform="translate(0,552.36216)"
         d="M 0,250 A 250,250 0 0 0 -250,500 250,250 0 0 0 0,750 250,250 0 0 0 250,500 250,250 0 0 0 0,250 Z m 0,50 A 200,200 0 0 1 200,500 200,200 0 0 1 0,700 200,200 0 0 1 -200,500 200,200 0 0 1 0,300 Z"
         style="opacity:1;fill:#ff41ff;fill-opacity:1;stroke:none;stroke-width:0.5;stroke-linecap:round;stroke-miterlimit:4;stroke-dasharray:none;stroke-opacity:1"
         inkscape:connector-curvature="0" />
      <path
         id="middle-ring"
         d="M 0,878.1236 A 174.23857,174.23857 0 0 0 -174.23857,1052.3622 174.23857,174.23857 0 0 0 0,1226.6008 174.23857,174.23857 0 0 0 174.23857,1052.3622 174.23857,174.23857 0 0 0 0,878.1236 Z m 0,34.84771 A 139.39085,139.39085 0 0 1 139.39085,1052.3622 139.39085,139.39085 0 0 1 0,1191.753 139.39085,139.39085 0 0 1 -139.39085,1052.3622 139.39085,139.39085 0 0 1 0,912.97131 Z"
         style="opacity:1;fill:#ff73ff;fill-opacity:1;stroke:none;stroke-width:0.5;stroke-linecap:round;stroke-miterlimit:4;stroke-dasharray:none;stroke-opacity:1"
         inkscape:connector-curvature="0" />
      <path
         id="inner-ring"
         d="M 0,937.7226 A 114.63958,114.63958 0 0 0 -114.63958,1052.3622 114.63958,114.63958 0 0 0 0,1167.0018 114.63958,114.63958 0 0 0 114.63958,1052.3622 114.63958,114.63958 0 0 0 0,937.7226 Z m 0,22.92791 A 91.71166,91.71166 0 0 1 91.71166,1052.3622 91.71166,91.71166 0 0 1 0,1144.0738 91.71166,91.71166 0 0 1 -91.71166,1052.3622 91.71166,91.71166 0 0 1 0,960.65051 Z"
         style="opacity:1;fill:#ffc3ff;fill-opacity:1;stroke:none;stroke-width:0.5;stroke-linecap:round;stroke-miterlimit:4;stroke-dasharray:none;stroke-opacity:1"
         inkscape:connector-curvature="0" />
    </g>
  </g>
</svg>
